<?xml version="1.0" encoding="UTF-8" standalone="no"?>
<!-- Created with Inkscape (http://www.inkscape.org/) -->

<svg
   width="40mm"
   height="40mm"
   viewBox="0 0 40 40"
   version="1.1"
   id="svg1"
   xml:space="preserve"
   inkscape:export-filename="ipad.svg"
   inkscape:export-xdpi="96"
   inkscape:export-ydpi="96"
   xmlns:inkscape="http://www.inkscape.org/namespaces/inkscape"
   xmlns:sodipodi="http://sodipodi.sourceforge.net/DTD/sodipodi-0.dtd"
   xmlns="http://www.w3.org/2000/svg"
   xmlns:svg="http://www.w3.org/2000/svg"><sodipodi:namedview
     id="namedview1"
     pagecolor="#505050"
     bordercolor="#eeeeee"
     borderopacity="1"
     inkscape:showpageshadow="0"
     inkscape:pageopacity="0"
     inkscape:pagecheckerboard="0"
     inkscape:deskcolor="#505050"
     inkscape:document-units="mm"><inkscape:page
       x="0"
       y="0"
       width="40"
       height="40"
       id="page2"
       margin="0"
       bleed="0" /></sodipodi:namedview><defs
     id="defs1" /><g
     inkscape:label="Layer 1"
     inkscape:groupmode="layer"
     id="layer1"><path
       style="fill:#ffd700;fill-opacity:1"
       d="m 11.341022,30.954083 -0.37546,-0.47056 0.0941,-10.55369 0.0941,-10.5536898 1.2111,-0.086 c 0.66611,-0.0473 1.94416,-0.0868 2.84012,-0.0878 0.89595,-10e-4 1.76098,-0.0372 1.92227,-0.0805 0.20573,-0.0552 0.42128,-0.36995 0.72215,-1.05457 l 0.42888,-0.97592 2.83464,-0.0883 c 4.39306,-0.13681 9.19557,-0.1072 9.86279,0.0608 0.58824,0.14812 0.59426,0.15572 0.93498,1.17882 0.31978,0.9602 0.34294,1.20424 0.34294,3.6139598 0,2.43696 -0.0195,2.63693 -0.34287,3.50923 -0.51885,1.39978 -0.45468,1.37977 -4.42501,1.37977 h -3.31228 v 6.66607 6.66606 l -0.37034,0.67147 -0.37034,0.67148 -5.85812,0.002 -5.85812,0.002 z m 11.49749,-0.57432 c 0.0496,-0.0549 0.12088,-0.50886 0.15836,-1.00882 l 0.0682,-0.90902 h -2.55007 -2.55006 l 0.35847,0.46998 c 0.34708,0.45505 0.35196,0.48608 0.15355,0.97636 -0.20111,0.49694 -0.21706,0.50565 -0.85663,0.46793 -1.03139,-0.0608 -1.02196,-0.0501 -0.91608,-1.03881 l 0.0937,-0.87546 h -2.50707 -2.50707 v 0.91575 c 0,0.54787 0.0676,0.98728 0.16834,1.0938 0.13671,0.14459 1.16656,0.16208 5.48224,0.0931 2.92265,-0.0467 5.35451,-0.12989 5.40412,-0.18478 z m 0.21065,-4.16083 c -0.0483,-0.78924 -0.0905,-2.89513 -0.0937,-4.67976 l -0.006,-3.24478 -0.2666,0.50501 c -0.25107,0.47557 -0.3037,0.50485 -0.90307,0.50221 l -0.63646,-0.003 -0.54974,-1.24289 -0.54974,-1.2429 -0.76063,-0.0403 c -0.75516,-0.04 -0.76453,-0.0457 -1.30197,-0.79627 l -0.54133,-0.75596 v -1.32477 -1.32477 h -2.82806 -2.82805 v 7.54148 7.54148 h 5.67658 5.67657 z m -9.78253,-0.14739 c 0.005,-0.35107 0.47736,-1.55005 0.9425,-2.39269 0.5445,-0.98639 0.54759,-0.98913 1.45055,-1.28571 0.49769,-0.16347 0.92846,-0.31762 0.95727,-0.34255 0.0288,-0.0249 -0.25904,-0.32533 -0.63968,-0.66756 l -0.69206,-0.62222 v -1.23955 -1.23954 l 0.51069,-0.49868 c 0.50056,-0.48878 0.5315,-0.49867 1.56035,-0.49867 0.95745,0 1.10037,0.0364 1.62698,0.4146 0.5489,0.39419 0.58813,0.46853 0.79714,1.51061 l 0.21983,1.09602 -0.83492,0.84242 c -0.45921,0.46332 -0.80802,0.86416 -0.77513,0.89074 0.0329,0.0266 0.46611,0.21796 0.96271,0.4253 l 0.90292,0.37697 0.47744,1.14054 c 0.27487,0.65661 0.47744,1.36719 0.47744,1.6747 0,0.50077 -0.0227,0.5315 -0.3627,0.49155 -0.31536,-0.037 -0.38629,-0.13606 -0.54328,-0.75836 -0.12105,-0.47984 -0.40504,-1.00139 -0.86161,-1.58237 l -0.68104,-0.86661 h -1.1718 -1.1718 l -0.83363,0.63689 c -0.81684,0.62406 -0.83803,0.65663 -1.05147,1.61604 l -0.21784,0.97913 h -0.52516 c -0.28884,0 -0.5245,-0.0455 -0.5237,-0.101 z m 4.99913,-5.26459 c 0.25261,-0.0977 0.41565,-0.31663 0.5673,-0.76169 l 0.2128,-0.62456 -0.43263,-0.66174 c -0.4319,-0.66063 -0.43388,-0.66174 -1.18178,-0.66416 -0.64667,-0.002 -0.79866,0.0493 -1.11102,0.37529 -0.29422,0.3071 -0.36187,0.50374 -0.36187,1.05184 0,0.63656 0.0319,0.69786 0.57234,1.09976 0.5946,0.44218 0.96771,0.48202 1.73486,0.18526 z m 4.26971,-3.86091 0.58412,-1.00836 h 3.65059 3.65059 l 0.37771,-0.36187 0.37771,-0.36187 v -3.3688 -3.3687898 l -0.43042,-0.44409 -0.43043,-0.44408 h -5.46698 -5.46699 l -0.56672,0.57744 -0.56671,0.57744 v 3.0022998 3.0023 l 0.48756,0.59501 c 0.45073,0.55004 0.53541,0.59501 1.12067,0.59501 h 0.63311 l 0.57789,1.01002 c 0.31784,0.55551 0.6468,1.00927 0.73103,1.00836 0.0842,-9e-4 0.416,-0.45541 0.73727,-1.01002 z m -1.14364,-1.78271 c 0.0356,-0.12962 0.13494,-0.54695 0.22085,-0.9274 0.13546,-0.59995 0.26973,-0.79202 1.01193,-1.44769 0.65961,-0.58271 0.95831,-0.75815 1.30326,-0.76549 l 0.44752,-0.01 -0.55356,-0.24632 c -0.83327,-0.37079 -1.12981,-0.87648 -1.12981,-1.9266698 0,-0.8592 0.008,-0.87865 0.60301,-1.4269 0.55427,-0.51092 0.66287,-0.55583 1.34397,-0.55583 0.40753,0 0.97938,0.0954 1.27078,0.21199 0.4498,0.17998 0.57582,0.32535 0.83448,0.96266 l 0.30468,0.75067 -0.30844,0.9059998 c -0.28862,0.84776 -0.34234,0.91614 -0.83566,1.06394 -0.66152,0.1982 -0.57118,0.36324 0.26151,0.47777 0.35528,0.0489 0.7111,0.13029 0.79071,0.18095 0.29221,0.18596 1.12174,2.04418 1.12174,2.5128 0,0.41289 -0.0426,0.4747 -0.32718,0.4747 -0.27405,0 -0.41071,-0.16947 -0.84168,-1.04369 -0.50522,-1.02484 -0.52825,-1.04842 -1.27569,-1.30581 -0.70596,-0.24312 -0.8232,-0.248 -1.61603,-0.0673 l -0.85485,0.19479 -0.53334,1.11102 c -0.48383,1.00788 -0.56906,1.11103 -0.9181,1.11103 -0.30128,0 -0.37072,-0.0511 -0.3201,-0.23568 z m 4.08502,-4.23547 c 0.4324,-0.15636 0.44724,-0.18619 0.44724,-0.89921 0,-0.6647598 -0.0424,-0.7729298 -0.43041,-1.0968098 -0.42491,-0.35473 -0.43859,-0.35671 -1.06949,-0.15496 -0.60726,0.19419 -0.64695,0.23722 -0.7974,0.86435 -0.15302,0.6378498 -0.14566,0.6731898 0.21933,1.0541598 0.41727,0.43554 0.88483,0.50219 1.63073,0.23247 z m -8.03693,-0.12709 V 9.8386132 l -0.90902,0.0858 c -0.49996,0.0472 -1.66653,0.0872 -2.59238,0.0889 -0.92585,0.002 -1.76252,0.0532 -1.85926,0.11458 -0.0967,0.0614 -0.21128,0.45433 -0.25451,0.87328 l -0.0786,0.76173 h 2.84689 2.8469 z"
       id="path1"
       sodipodi:nodetypes="ccccsssscssssssccccccccsscccsssscccssssssccsccccsscccccccccsssssscccsssscssscssssscccsscsssscscssssscccccccccccccccsscssscssccsscssscssssssssscssccsssssssccscsscccc" /></g></svg>
