<?xml version="1.0" encoding="UTF-8" standalone="no"?>
<!-- Created with Inkscape (http://www.inkscape.org/) -->

<svg
   width="40mm"
   height="40mm"
   viewBox="0 0 40 40"
   version="1.1"
   id="svg1"
   xml:space="preserve"
   inkscape:export-filename="ipad.svg"
   inkscape:export-xdpi="96"
   inkscape:export-ydpi="96"
   xmlns:inkscape="http://www.inkscape.org/namespaces/inkscape"
   xmlns:sodipodi="http://sodipodi.sourceforge.net/DTD/sodipodi-0.dtd"
   xmlns="http://www.w3.org/2000/svg"
   xmlns:svg="http://www.w3.org/2000/svg"><sodipodi:namedview
     id="namedview1"
     pagecolor="#505050"
     bordercolor="#eeeeee"
     borderopacity="1"
     inkscape:showpageshadow="0"
     inkscape:pageopacity="0"
     inkscape:pagecheckerboard="0"
     inkscape:deskcolor="#505050"
     inkscape:document-units="mm"><inkscape:page
       x="0"
       y="0"
       width="40"
       height="40"
       id="page2"
       margin="0"
       bleed="0" /></sodipodi:namedview><defs
     id="defs1" /><g
     inkscape:label="Layer 1"
     inkscape:groupmode="layer"
     id="layer1"><path
       d="m 12.654097,31.129714 -0.74854,-0.53602 v -10.08537 -10.08538 l 0.76261,-0.5460902 0.7626,-0.54609 h 6.531795 6.53179 l 0.92043,0.6997502 0.92043,0.69975 v 9.69405 9.69405 l -0.43767,0.6393 -0.43768,0.6393 -0.94269,0.0726 c -0.51847,0.0399 -3.68135,0.10039 -7.02861,0.13439 l -6.085915,0.0618 z m 6.25427,-1.32921 v -1.07735 h -2.78571 c -2.67481,0 -2.79812,-0.0117 -3.0974,-0.29282 l -0.31168,-0.29281 v 1.06809 1.0681 l 0.70701,0.28861 c 0.62553,0.25534 0.98251,0.29016 3.0974,0.30207 l 2.39038,0.0135 z m 7.974525,0.44274 0.6443,-0.63462 v -9.04665 c 0,-8.92624 -0.004,-9.05089 -0.276,-9.36458 l -0.276,-0.31793 0.20867,0.43099 c 0.18103,0.3739 0.20867,1.45708 0.20867,8.17818 v 7.74719 l -0.36473,0.74366 -0.36473,0.74367 h -2.73267 c -1.64204,0 -2.73266,0.0512 -2.73266,0.12833 0,0.0706 0.0663,0.27389 0.14738,0.45179 0.11905,0.26129 0.0932,0.42973 -0.13467,0.87632 -0.15513,0.30408 -0.28205,0.58558 -0.28205,0.62556 0,0.04 1.19479,0.0727 2.65509,0.0727 h 2.65509 z m -6.49317,-0.41581 c 0,-0.63334 -0.56975,-0.96948 -0.73907,-0.43602 -0.11401,0.35921 0.15085,0.8131 0.47447,0.8131 0.20002,0 0.2646,-0.092 0.2646,-0.37708 z m 5.81708,-2.27417 0.37771,-0.36187 v -7.61088 -7.61087 l -0.43043,-0.44409 -0.43042,-0.44409 h -5.79066 -5.790665 l -0.37771,0.36187 -0.3777,0.36187 v 7.67726 7.67725 l 0.36186,0.37771 0.36187,0.37771 h 5.859215 5.85922 z m -4.83373,-17.38006 c -0.68129,-0.0244 -1.83271,-0.0245 -2.558715,-2.3e-4 -0.72601,0.0243 -0.1686,0.0442 1.238695,0.0444 1.40729,1.3e-4 2.0013,-0.0197 1.32002,-0.0441 z"
       style="fill:#ffd700;fill-opacity:1"
       id="path1-7"
       sodipodi:nodetypes="cccccccccccccccsccccsccccscccccsccsscccsscsssccsssscccccccccccccccccccccc" /></g></svg>
