<?xml version="1.0" encoding="UTF-8" standalone="no"?>
<!-- Created with Inkscape (http://www.inkscape.org/) -->

<svg
   width="40mm"
   height="40mm"
   viewBox="0 0 40 40"
   version="1.1"
   id="svg1"
   xml:space="preserve"
   inkscape:export-filename="pc.png"
   inkscape:export-xdpi="96"
   inkscape:export-ydpi="96"
   xmlns:inkscape="http://www.inkscape.org/namespaces/inkscape"
   xmlns:sodipodi="http://sodipodi.sourceforge.net/DTD/sodipodi-0.dtd"
   xmlns="http://www.w3.org/2000/svg"
   xmlns:svg="http://www.w3.org/2000/svg"><sodipodi:namedview
     id="namedview1"
     pagecolor="#505050"
     bordercolor="#eeeeee"
     borderopacity="1"
     inkscape:showpageshadow="0"
     inkscape:pageopacity="0"
     inkscape:pagecheckerboard="0"
     inkscape:deskcolor="#505050"
     inkscape:document-units="mm"><inkscape:page
       x="0"
       y="0"
       width="40"
       height="40"
       id="page2"
       margin="0"
       bleed="0" /></sodipodi:namedview><defs
     id="defs1" /><g
     inkscape:label="Layer 1"
     inkscape:groupmode="layer"
     id="layer1"><path
       d="m 10.281802,30.973837 c 0,-0.82012 0.01853,-0.8655 0.577442,-1.41403 l 0.577442,-0.56672 h 2.360088 2.360088 l 0.361869,-0.3777 c 0.20978,-0.21897 0.361868,-0.53027 0.361868,-0.74069 v -0.36297 H 12.865715 8.8508298 l -0.361868,-0.37771 -0.361869,-0.37771 v -8.14646 -8.146459 l 0.510688,-0.4986701 0.510688,-0.49868 H 20.021816 30.895163 l 0.66887,0.33895 0.66887,0.3389401 v 8.322029 8.32203 l -0.37771,0.36187 -0.377709,0.36187 H 27.47844 23.479396 v 0.36297 c 0,0.21042 0.152089,0.52172 0.361869,0.74069 l 0.361869,0.3777 h 2.121116 2.121115 l 0.743946,0.50501 0.743945,0.50501 0.0051,0.90902 0.0051,0.90902 h -9.830861 -9.830861 z m 18.988376,-0.056 c 0,-0.0524 -0.224403,-0.32514 -0.498674,-0.60601 l -0.498673,-0.51069 h -7.922637 -7.922636 l -0.66887,0.33894 c -0.463256,0.23475 -0.66887,0.42104 -0.66887,0.60601 0,0.26368 0.115518,0.26707 9.09018,0.26707 4.999599,0 9.09018,-0.0429 9.09018,-0.0953 z m -6.598797,-2.6654 v -0.74068 h -2.491383 -2.491383 v 0.74068 0.74068 h 2.491383 2.491383 z m -0.502554,-1.59468 c 5.019467,-0.0268 9.147117,-0.0728 9.172556,-0.10236 0.02544,-0.0295 0.08141,-0.49302 0.124377,-1.03001 l 0.07813,-0.97635 H 20.172163 8.8004388 v 0.7006 c 0,0.59792 0.05994,0.76244 0.408938,1.12252 l 0.408938,0.42192 1.7121042,-0.0438 c 0.941657,-0.0241 5.818941,-0.0657 10.838408,-0.0925 z m 9.358331,-9.40254 -0.03494,-6.620469 -0.471343,-0.17008 c -0.363031,-0.13101 -2.816457,-0.17244 -10.677017,-0.18034 l -10.205679,-0.0103 -0.6688702,0.33895 -0.66887,0.33894 v 6.461859 6.46186 H 20.181267 31.562094 Z"
       style="fill:#ffd700;fill-opacity:1"
       id="path1-4" /></g></svg>
