<?xml version="1.0" encoding="UTF-8" standalone="no"?>
<!-- Created with Inkscape (http://www.inkscape.org/) -->

<svg
   width="40mm"
   height="40mm"
   viewBox="0 0 40 40"
   version="1.1"
   id="svg1"
   xml:space="preserve"
   inkscape:export-filename="pizarra.svg"
   inkscape:export-xdpi="96"
   inkscape:export-ydpi="96"
   xmlns:inkscape="http://www.inkscape.org/namespaces/inkscape"
   xmlns:sodipodi="http://sodipodi.sourceforge.net/DTD/sodipodi-0.dtd"
   xmlns="http://www.w3.org/2000/svg"
   xmlns:svg="http://www.w3.org/2000/svg"><sodipodi:namedview
     id="namedview1"
     pagecolor="#505050"
     bordercolor="#eeeeee"
     borderopacity="1"
     inkscape:showpageshadow="0"
     inkscape:pageopacity="0"
     inkscape:pagecheckerboard="0"
     inkscape:deskcolor="#505050"
     inkscape:document-units="mm"><inkscape:page
       x="0"
       y="0"
       width="40"
       height="40"
       id="page2"
       margin="0"
       bleed="0" /></sodipodi:namedview><defs
     id="defs1" /><g
     inkscape:label="Layer 1"
     inkscape:groupmode="layer"
     id="layer1"><path
       d="m 13.045977,24.895964 v -0.33667 h -1.90074 -1.90074 l -0.51779,-0.57234 -0.51778,-0.57235 -0.006,-3.85552 -0.006,-3.85552 0.59501,-0.48756 0.59501,-0.48757 h 10.83539 10.83539 l 0.62251,0.75615 0.6225,0.75615 v 1.4446 c 0,0.79453 0.0366,2.25715 0.0812,3.25026 l 0.0812,1.80566 -0.7065,0.90902 -0.7065,0.90902 h -1.79879 -1.79879 v 0.33667 0.33668 h -2.02004 -2.02004 v -0.33668 -0.33667 h -3.14924 -3.14925 l -0.22059,0.33667 c -0.21724,0.33156 -0.24821,0.33668 -2.03553,0.33668 h -1.81493 z m 17.83975,-1.57462 0.60995,-0.42993 v -3.24473 -3.24473 l -0.66985,-0.50008 -0.66985,-0.50009 h -10.06435 -10.06436 l -0.51068,0.49867 -0.51069,0.49867 v 3.23199 3.23199 l 0.43042,0.44409 0.43043,0.44408 h 10.20451 10.20452 z m -7.34424,-0.41348 c -0.33809,-0.1657 -0.89865,-0.61057 -1.24569,-0.98859 l -0.63099,-0.68731 v -1.60568 -1.60568 l 0.9124,-0.9054 0.9124,-0.90541 h 1.6836 1.6836 l 0.9054,0.9124 0.90541,0.9124 v 1.61654 1.61654 l -0.87171,0.86397 c -0.81448,0.80724 -0.92279,0.87034 -1.6497,0.96109 -1.38019,0.17233 -1.95985,0.13118 -2.60472,-0.18487 z m 2.85286,-0.86751 c 0.89093,-0.48121 0.93752,-0.53205 1.31411,-1.4341 0.38675,-0.92638 0.38835,-0.9413 0.16979,-1.58165 -0.17657,-0.51728 -0.41417,-0.80924 -1.18925,-1.46128 -0.8413,-0.70776 -1.04144,-0.81485 -1.52278,-0.81485 -0.48126,0 -0.68164,0.10717 -1.52278,0.81441 -0.77033,0.64769 -1.01225,0.94379 -1.18182,1.44646 -0.20943,0.62082 -0.20622,0.64925 0.18044,1.59862 0.3824,0.93889 0.41933,0.98024 1.29058,1.44501 0.4933,0.26316 1.04116,0.48023 1.21747,0.48238 0.17631,0.002 0.73622,-0.2206 1.24424,-0.495 z m -15.19854,-0.24178 0.14466,-0.47134 1.29043,-3.6e-4 c 0.70973,-1.9e-4 2.5176,-0.0401 4.01748,-0.0887 l 2.72706,-0.0884 v 0.56006 0.56005 h -4.16215 -4.16214 z m 0.0386,-1.8434 c -0.23743,-0.40194 -0.23621,-0.41209 0.0887,-0.73695 l 0.32939,-0.32939 3.79418,0.0954 3.79417,0.0954 v 0.51524 c 0,0.42625 -0.0523,0.52591 -0.30301,0.577 -0.16665,0.034 -1.91392,0.0908 -3.88282,0.12633 l -3.57982,0.0646 z m 0.14532,-2.11047 c -0.1205,-0.13315 -0.21909,-0.37367 -0.21909,-0.53449 v -0.2924 h 4.12201 4.12201 l -0.0915,0.37034 c -0.0503,0.20369 -0.13262,0.40807 -0.18293,0.45419 -0.0503,0.0461 -1.76547,0.11999 -3.81147,0.16415 -3.46831,0.0749 -3.73481,0.0639 -3.93907,-0.16179 z"
       style="fill:#000000"
       id="path1-42"
       sodipodi:nodetypes="ccccccccccccccsccccccccccccccsscccccccccccccccccccsscccccccccccsssssssssssscsccssccccccsscccssscscsccccsscc" /></g></svg>
