<?xml version="1.0" encoding="UTF-8" standalone="no"?>
<!-- Created with Inkscape (http://www.inkscape.org/) -->

<svg
   width="40mm"
   height="40mm"
   viewBox="0 0 40 40"
   version="1.1"
   id="svg1"
   xml:space="preserve"
   inkscape:export-filename="proyector.svg"
   inkscape:export-xdpi="96"
   inkscape:export-ydpi="96"
   xmlns:inkscape="http://www.inkscape.org/namespaces/inkscape"
   xmlns:sodipodi="http://sodipodi.sourceforge.net/DTD/sodipodi-0.dtd"
   xmlns="http://www.w3.org/2000/svg"
   xmlns:svg="http://www.w3.org/2000/svg"><sodipodi:namedview
     id="namedview1"
     pagecolor="#505050"
     bordercolor="#eeeeee"
     borderopacity="1"
     inkscape:showpageshadow="0"
     inkscape:pageopacity="0"
     inkscape:pagecheckerboard="0"
     inkscape:deskcolor="#505050"
     inkscape:document-units="mm"><inkscape:page
       x="0"
       y="0"
       width="40"
       height="40"
       id="page2"
       margin="0"
       bleed="0" /></sodipodi:namedview><defs
     id="defs1" /><g
     inkscape:label="Layer 1"
     inkscape:groupmode="layer"
     id="layer1"><path
       d="m 7.7304481,27.484762 c 0,-0.19752 0.0898,-0.26934 0.33667,-0.26934 h 0.33668 v -6.27673 -6.27672 l -0.30301,0.0727 c -0.16665,0.04 -0.53026,0.11392 -0.80801,0.16426 l -0.50501,0.0915 v -1.27303 -1.27303 l 0.55441,-0.16611 c 0.52286,-0.15665 0.57501,-0.14637 0.91638,0.18069 l 0.36198,0.34679 h 11.0954799 11.09548 l 0.37254,-0.35691 c 0.35918,-0.34411 0.39084,-0.34996 0.88272,-0.16308 l 0.51018,0.19384 0.0389,1.25641 0.0389,1.2564 -0.51028,-0.0925 c -0.28065,-0.0509 -0.64663,-0.12523 -0.81328,-0.16524 l -0.30301,-0.0727 v 6.27672 6.27672 h 0.33668 c 0.24689,0 0.33667,0.0718 0.33667,0.26934 0,0.26732 -0.0898,0.26934 -11.98557,0.26934 -11.8957899,0 -11.9855699,-0.002 -11.9855699,-0.26934 z m 22.7591199,-6.5988 v -6.32946 H 19.648688 8.8078081 v 6.32946 6.32946 H 19.648688 30.489568 Z M 7.6891081,13.380712 c -0.0342,-0.13103 -0.0643,-0.0564 -0.0671,0.16577 -0.003,0.22221 0.0252,0.32941 0.0621,0.23824 0.0369,-0.0912 0.0391,-0.27298 0.005,-0.40401 z m 24.1058099,0 c -0.0342,-0.13103 -0.0643,-0.0564 -0.0671,0.16577 -0.003,0.22221 0.0252,0.32941 0.0621,0.23824 0.0369,-0.0912 0.0391,-0.27298 0.005,-0.40401 z"
       style="fill:#000000"
       id="path1-1" /></g></svg>
