<?xml version="1.0" encoding="UTF-8" standalone="no"?>
<!-- Created with Inkscape (http://www.inkscape.org/) -->

<svg
   width="40mm"
   height="40mm"
   viewBox="0 0 40 40"
   version="1.1"
   id="svg1"
   xml:space="preserve"
   inkscape:export-filename="pc.svg"
   inkscape:export-xdpi="96"
   inkscape:export-ydpi="96"
   xmlns:inkscape="http://www.inkscape.org/namespaces/inkscape"
   xmlns:sodipodi="http://sodipodi.sourceforge.net/DTD/sodipodi-0.dtd"
   xmlns="http://www.w3.org/2000/svg"
   xmlns:svg="http://www.w3.org/2000/svg"><sodipodi:namedview
     id="namedview1"
     pagecolor="#505050"
     bordercolor="#eeeeee"
     borderopacity="1"
     inkscape:showpageshadow="0"
     inkscape:pageopacity="0"
     inkscape:pagecheckerboard="0"
     inkscape:deskcolor="#505050"
     inkscape:document-units="mm"><inkscape:page
       x="0"
       y="0"
       width="40"
       height="40"
       id="page2"
       margin="0"
       bleed="0" /></sodipodi:namedview><defs
     id="defs1" /><g
     inkscape:label="Layer 1"
     inkscape:groupmode="layer"
     id="layer1"><path
       d="m 12.511881,31.084137 c -0.15308,-0.36957 -0.10867,-0.81738 0.36139,-3.64435 0.48619,-2.92394 0.51616,-3.24034 0.32297,-3.40984 -0.12729,-0.11168 -0.70049,-0.22252 -1.42497,-0.27556 -0.66662,-0.0488 -1.46958,-0.12325 -1.7843696,-0.16544 l -0.57235,-0.0767 v -7.32419 -7.3241797 h 4.5787596 4.57876 v -0.45937 c 0,-0.34764 0.10078,-0.54418 0.41434,-0.80802 0.50281,-0.42309 0.58599,-0.42572 1.26902,-0.0401 0.45789,0.25853 0.54495,0.37938 0.58048,0.8058 l 0.0418,0.50165 h 4.43596 4.43596 v 7.3241897 7.32419 l -0.57234,0.0778 c -0.31479,0.0428 -1.13191,0.118 -1.81582,0.16715 -0.80419,0.0578 -1.29842,0.15557 -1.399,0.27676 -0.1193,0.14375 -0.0414,0.88467 0.33458,3.1812 0.26955,1.6466 0.49004,3.28421 0.48997,3.63915 l -1.1e-4,0.64535 -1.04369,-0.0393 -1.04369,-0.0393 -0.2499,-1.36409 -0.2499,-1.36409 -4.5039,-0.0994 c -2.47715,-0.0546 -4.53265,-0.0706 -4.56778,-0.0355 -0.0351,0.0351 -0.17475,0.64946 -0.31025,1.36516 -0.1355,0.71571 -0.27039,1.32289 -0.29975,1.34931 -0.0294,0.0264 -0.45349,0.0897 -0.94251,0.14052 l -0.88912,0.0925 z m 1.34964,-0.43751 c 0.0382,-0.44679 0.94884,-6.18829 1.01699,-6.41213 0.0877,-0.28792 0.0661,-0.30884 -0.22581,-0.21894 -0.17749,0.0547 -0.33404,0.10825 -0.34789,0.11906 -0.0461,0.036 -0.98485,6.03334 -0.98485,6.29165 0,0.16425 0.0952,0.25403 0.26934,0.25403 0.14814,0 0.27064,-0.0151 0.27222,-0.0337 z m 12.0457,-0.67335 c -0.0994,-0.38886 -0.3375,-1.76753 -0.52907,-3.06372 -0.44879,-3.03655 -0.43014,-2.96273 -0.74853,-2.96273 -0.14672,0 -0.26677,0.0657 -0.26677,0.14594 0,0.1545 0.89373,5.58661 1.02289,6.21719 0.0566,0.27609 0.15556,0.37034 0.38905,0.37034 0.31099,0 0.31192,-0.005 0.13243,-0.70702 z m -1.81371,-2.67948 v -0.42377 l -4.41042,0.0983 c -2.42573,0.0541 -4.41804,0.10844 -4.42736,0.12076 -0.009,0.0123 -0.0589,0.15877 -0.11008,0.32543 l -0.0931,0.303 h 4.5205 4.5205 z m -0.40401,-1.58599 c 0,-0.21656 -0.071,-0.70137 -0.1578,-1.07736 l -0.1578,-0.68362 h -3.81494 -3.81495 v 0.39524 c 0,0.21738 -0.0517,0.53554 -0.11495,0.70702 -0.0632,0.17147 -0.15528,0.47842 -0.20457,0.68211 l -0.0896,0.37034 h 4.17732 4.17731 z m 2.28938,-2.973 v -0.40401 h -6.46413 -6.46413 v 0.40401 0.404 h 6.46413 6.46413 z m -13.53389,-0.53868 0.14714,-0.60601 7.09738,-0.0349 7.09739,-0.0349 v 0.67453 0.67454 h 1.07735 1.07735 v -6.59879 -6.5987997 h -9.35951 -9.35952 v 6.6044597 6.60446 l 1.03764,-0.0393 1.03764,-0.0393 z m 7.60844,-13.4399997 c 0,-0.19031 -0.31583,-0.43094 -0.56561,-0.43094 -0.15263,0 -0.24241,0.0998 -0.24241,0.26934 0,0.20948 0.0898,0.26934 0.40401,0.26934 0.22221,0 0.40401,-0.0485 0.40401,-0.10774 z"
       style="fill:#000000"
       id="path1-2" /></g></svg>
